<?xml version="1.0" standalone="no"?>
<!DOCTYPE svg PUBLIC "-//W3C//DTD SVG 20010904//EN"
 "http://www.w3.org/TR/2001/REC-SVG-20010904/DTD/svg10.dtd">
<svg version="1.0" xmlns="http://www.w3.org/2000/svg"
 width="256.000000pt" height="256.000000pt" viewBox="0 0 256.000000 256.000000"
 preserveAspectRatio="xMidYMid meet">
<metadata>
Created by potrace 1.14, written by Peter Selinger 2001-2017
</metadata>
<g transform="translate(0.000000,256.000000) scale(0.100000,-0.100000)"
fill="#000000" stroke="none">
<path d="M1169 2416 c-2 -2 -24 -6 -49 -9 -221 -27 -460 -145 -632 -312 -38
-36 -68 -67 -68 -69 0 -3 -16 -22 -35 -43 -19 -21 -35 -42 -35 -46 0 -5 -11
-23 -24 -40 -71 -94 -148 -291 -172 -439 -18 -107 -13 -289 11 -423 17 -92 79
-248 136 -342 21 -36 39 -67 39 -69 0 -2 8 -12 18 -22 9 -11 33 -39 52 -63 40
-50 106 -116 151 -151 17 -13 36 -28 42 -34 24 -21 164 -101 225 -128 76 -33
209 -73 283 -83 70 -10 280 -10 344 0 155 25 293 75 424 155 42 25 81 51 88
56 6 6 26 22 44 36 61 47 208 207 209 228 0 6 4 12 8 12 5 0 17 17 29 38 11
20 30 54 41 75 12 21 22 44 22 51 0 8 4 16 8 18 12 4 70 174 77 224 4 22 10
53 14 70 9 33 6 310 -3 359 -55 281 -178 495 -400 693 -20 17 -40 32 -43 32
-4 0 -16 9 -27 19 -12 10 -38 28 -58 40 -21 12 -53 29 -70 39 -39 22 -170 78
-178 76 -3 -1 -16 3 -30 8 -14 5 -34 12 -45 14 -29 5 -66 13 -95 20 -28 7
-295 15 -301 10z"/>
</g>
</svg>
